<svg version="1.0" xmlns="http://www.w3.org/2000/svg"
                        width="40" height="40" viewBox="0 0 512.000000 512.000000"
                        preserveAspectRatio="xMidYMid meet">
                    
                    <g transform="translate(0.000000,512.000000) scale(0.100000,-0.100000)"
                    fill="#F58A07" stroke="none">
                    <path d="M2380 4094 c-25 -2 -106 -8 -180 -14 -635 -52 -1348 -255 -1592 -454
                    -112 -91 -202 -243 -230 -389 l-12 -65 -126 -4 c-121 -3 -128 -4 -163 -31 -21
                    -16 -46 -46 -57 -67 -19 -38 -20 -60 -20 -580 0 -587 -1 -579 56 -632 43 -40
                    75 -48 194 -48 l108 0 7 -52 c22 -174 102 -302 236 -381 75 -44 979 -346 1057
                    -353 177 -16 359 76 449 227 17 30 73 160 123 289 51 129 100 243 109 254 32
                    37 74 46 221 46 155 0 196 -10 225 -54 10 -14 60 -133 111 -263 52 -130 108
                    -258 125 -285 92 -142 265 -228 435 -214 55 4 173 40 544 166 260 88 493 172
                    518 186 133 78 217 212 237 377 l6 57 110 0 c71 0 121 5 142 14 39 16 82 61
                    96 99 7 19 11 210 11 565 0 604 1 590 -76 648 -36 28 -42 29 -164 32 l-126 4
                    -12 65 c-28 146 -117 297 -230 390 -97 79 -516 263 -600 263 -35 0 -72 -37
                    -72 -71 0 -46 26 -66 127 -100 122 -40 289 -110 369 -155 118 -65 208 -179
                    251 -319 17 -56 18 -110 18 -795 l0 -735 -23 -49 c-32 -71 -82 -128 -139 -159
                    -67 -36 -931 -326 -994 -334 -107 -13 -240 51 -299 143 -16 25 -72 157 -126
                    292 -93 237 -99 249 -149 299 -74 72 -116 83 -315 83 -199 0 -241 -11 -315
                    -83 -50 -50 -56 -62 -149 -299 -54 -135 -110 -267 -126 -292 -59 -92 -192
                    -156 -300 -143 -63 8 -894 286 -977 328 -73 36 -116 81 -152 159 l-26 55 0
                    735 c0 816 -3 781 68 913 63 120 160 193 370 282 381 159 878 264 1410 296
                    302 19 692 -11 1058 -81 86 -17 162 -30 168 -30 21 0 61 48 61 73 0 13 -9 36
                    -20 50 -17 21 -39 28 -157 51 -304 57 -563 85 -843 90 -113 2 -225 2 -250 0z
                    m-2020 -1604 l0 -531 -102 3 -103 3 -3 515 c-1 283 0 521 3 528 3 8 34 12 105
                    12 l100 0 0 -530z m4605 0 l0 -525 -102 -3 -103 -3 0 531 0 531 103 -3 102 -3
                    0 -525z"/>
                    <path d="M2371 3789 c-406 -25 -874 -111 -1169 -214 -157 -54 -333 -133 -384
                    -170 -56 -41 -113 -123 -134 -190 -20 -69 -21 -1449 0 -1498 20 -48 67 -83
                    146 -108 l70 -23 27 21 c31 22 41 69 24 102 -6 11 -36 28 -68 38 l-58 20 0
                    705 0 705 30 49 c27 44 41 55 134 100 363 181 1036 316 1571 316 544 0 1215
                    -136 1583 -321 80 -40 96 -52 122 -95 l30 -49 0 -705 0 -704 -440 -149 c-267
                    -90 -443 -145 -448 -140 -5 5 -53 120 -107 255 -53 135 -112 267 -129 295 -75
                    116 -214 213 -352 246 -89 21 -428 21 -518 0 -135 -32 -279 -132 -351 -245
                    -18 -28 -77 -161 -130 -296 -54 -135 -102 -250 -107 -255 -6 -6 -94 20 -243
                    71 -128 44 -243 80 -255 80 -56 0 -88 -88 -46 -127 11 -10 134 -56 273 -102
                    241 -79 255 -83 296 -72 85 23 100 47 213 327 56 141 116 277 133 302 41 61
                    120 124 193 153 55 23 70 24 283 24 213 0 228 -1 283 -24 72 -28 149 -90 192
                    -152 18 -26 78 -162 135 -303 112 -280 127 -303 212 -327 42 -12 54 -8 503
                    142 253 85 473 163 489 174 16 11 39 33 50 48 21 28 21 36 24 740 2 498 0 728
                    -8 764 -15 69 -78 164 -137 207 -59 43 -241 123 -400 176 -445 148 -1095 237
                    -1532 209z"/>
                    <path d="M1017 3132 c-58 -58 -67 -73 -67 -103 0 -45 25 -69 71 -69 29 0 45
                    10 102 68 54 55 68 75 69 100 1 44 -26 72 -71 72 -32 0 -45 -9 -104 -68z"/>
                    <path d="M1345 3060 c-11 -4 -74 -62 -139 -128 -103 -104 -119 -125 -119 -153
                    0 -37 40 -79 75 -79 24 0 274 240 284 273 9 27 -14 73 -42 86 -29 13 -32 13
                    -59 1z"/>
                    </g>
                    </svg>