<svg version="1.0" xmlns="http://www.w3.org/2000/svg"
 width="40" height="40" viewBox="0 0 512.000000 512.000000"
 preserveAspectRatio="xMidYMid meet">

<g transform="translate(0.000000,512.000000) scale(0.100000,-0.100000)"
fill="#F58A07" stroke="none">
<path d="M2185 4215 c-24 -23 -25 -29 -25 -160 l0 -135 -856 0 c-643 0 -867
-3 -898 -12 -55 -16 -138 -99 -154 -154 -17 -60 -17 -2648 0 -2708 16 -55 99
-138 154 -154 32 -9 525 -12 2156 -12 2385 0 2172 -8 2251 80 24 26 49 66 55
88 17 57 17 2647 0 2704 -6 22 -31 62 -55 88 -76 85 -20 80 -995 80 l-858 0 0
135 c0 131 -1 137 -25 160 l-24 25 -351 0 -351 0 -24 -25z m615 -351 c0 -141
-4 -231 -12 -258 -16 -55 -99 -138 -154 -154 -94 -28 -169 -8 -239 63 -70 70
-75 92 -75 349 l0 216 240 0 240 0 0 -216z m-638 -195 c5 -78 11 -100 42 -163
43 -88 102 -146 194 -189 61 -29 76 -32 162 -32 86 0 101 3 162 32 92 43 151
101 194 189 31 63 37 85 42 163 l5 91 854 0 854 0 24 -25 25 -24 0 -1311 0
-1311 -25 -24 -24 -25 -2111 0 -2111 0 -24 25 -25 24 0 1311 0 1311 25 24 24
25 854 0 854 0 5 -91z"/>
<path d="M1466 3264 c-154 -37 -296 -152 -366 -297 -86 -180 -77 -372 26 -544
l35 -58 -22 -15 c-122 -80 -203 -161 -280 -278 -97 -147 -139 -310 -139 -534
0 -124 1 -130 25 -153 l24 -25 831 0 831 0 24 25 c24 23 25 29 25 153 0 224
-42 387 -139 534 -77 117 -158 198 -280 278 l-22 15 35 58 c103 172 112 364
26 544 -113 233 -380 359 -634 297z m298 -182 c91 -42 149 -100 194 -190 35
-72 37 -81 37 -172 0 -91 -2 -100 -37 -172 -45 -91 -103 -147 -196 -191 -61
-29 -76 -32 -162 -32 -86 0 -101 3 -162 32 -93 44 -151 100 -196 191 -35 72
-37 81 -37 171 0 87 3 102 32 163 40 85 97 147 172 186 78 42 122 52 213 48
61 -3 92 -11 142 -34z m-324 -898 c40 -14 84 -19 160 -19 111 0 166 13 263 62
l48 24 62 -37 c34 -21 96 -72 138 -113 131 -131 196 -280 206 -473 l6 -108
-723 0 -723 0 6 108 c7 126 37 234 94 332 49 84 181 216 258 257 l59 31 46
-22 c25 -13 70 -32 100 -42z"/>
<path d="M3145 3095 c-16 -15 -25 -36 -25 -55 0 -19 9 -40 25 -55 l24 -25 591
0 591 0 24 25 c16 15 25 36 25 55 0 19 -9 40 -25 55 l-24 25 -591 0 -591 0
-24 -25z"/>
<path d="M3145 2615 c-16 -15 -25 -36 -25 -55 0 -19 9 -40 25 -55 l24 -25 591
0 591 0 24 25 c16 15 25 36 25 55 0 19 -9 40 -25 55 l-24 25 -591 0 -591 0
-24 -25z"/>
<path d="M3145 2135 c-16 -15 -25 -36 -25 -55 0 -19 9 -40 25 -55 l24 -25 591
0 591 0 24 25 c16 15 25 36 25 55 0 19 -9 40 -25 55 l-24 25 -591 0 -591 0
-24 -25z"/>
<path d="M3145 1655 c-16 -15 -25 -36 -25 -55 0 -19 9 -40 25 -55 l24 -25 591
0 591 0 24 25 c16 15 25 36 25 55 0 19 -9 40 -25 55 l-24 25 -591 0 -591 0
-24 -25z"/>
</g>
</svg>
