<svg version="1.0" xmlns="http://www.w3.org/2000/svg"
 width="50" height="50" viewBox="0 0 512.000000 512.000000"
 preserveAspectRatio="xMidYMid meet">

<g transform="translate(0.000000,512.000000) scale(0.100000,-0.100000)"
fill="#FFFFFF" stroke="none">
<path d="M319 5106 c-152 -43 -276 -173 -308 -326 -9 -41 -11 -546 -9 -2040 3
-1930 4 -1986 22 -2030 34 -80 88 -152 148 -196 53 -39 119 -63 770 -280 l712
-237 75 6 c180 12 321 120 381 290 16 46 20 82 20 201 l0 145 428 3 c417 3
428 4 491 26 155 56 276 175 334 329 22 57 22 67 25 667 3 677 6 643 -65 672
-28 12 -42 13 -69 4 -71 -24 -68 3 -74 -655 l-5 -590 -24 -53 c-31 -68 -113
-144 -183 -169 -48 -16 -91 -18 -453 -18 l-400 0 -5 1760 -5 1760 -32 67 c-40
85 -106 157 -181 195 -31 17 -217 84 -412 149 l-355 119 175 3 c96 1 501 1
900 0 677 -3 728 -4 773 -22 66 -25 149 -104 178 -168 l24 -53 5 -590 c6 -658
3 -631 74 -655 27 -9 41 -8 69 4 71 29 68 -5 65 672 -3 600 -3 610 -25 667
-58 154 -179 273 -334 329 l-64 23 -1310 2 c-1038 1 -1320 -1 -1356 -11z m826
-429 c352 -117 654 -221 672 -230 37 -20 76 -68 92 -116 8 -25 11 -554 11
-1990 0 -1876 -1 -1958 -19 -1996 -33 -72 -93 -119 -169 -131 -34 -5 -132 25
-718 220 -374 124 -693 236 -710 248 -41 29 -74 77 -85 125 -14 61 -12 3884 3
3941 8 33 25 60 58 93 53 53 100 69 175 58 28 -4 338 -104 690 -222z"/>
<path d="M4104 3821 c-40 -24 -59 -76 -44 -117 6 -16 163 -181 353 -371 l342
-343 -944 0 c-1045 0 -993 3 -1025 -65 -20 -41 -20 -49 0 -90 32 -68 -20 -65
1025 -65 l944 0 -342 -342 c-190 -191 -347 -356 -353 -372 -15 -41 4 -93 44
-117 37 -23 67 -24 104 -5 15 8 226 214 470 458 l442 444 0 44 0 44 -442 444
c-244 244 -455 450 -470 458 -37 19 -67 18 -104 -5z"/>
</g>
</svg>
