<svg version="1.0" xmlns="http://www.w3.org/2000/svg"
        width="80" height="80" viewBox="0 0 1573.000000 627.000000"
        preserveAspectRatio="xMidYMid meet">
        <g transform="translate(0.000000,627.000000) scale(0.100000,-0.100000)"
        fill="#131DE8" stroke="none">
        <path d="M7815 6244 c-25 -26 -184 -349 -714 -1452 -269 -559 -529 -1100 -578
        -1202 l-89 -184 -158 179 c-204 231 -441 516 -688 825 -224 282 -274 332 -327
        328 -35 -3 -48 -21 -840 -1151 l-804 -1148 -132 131 c-143 141 -161 151 -208
        108 -37 -34 -153 -178 -877 -1083 -364 -456 -666 -834 -671 -839 -4 -5 -62 27
        -133 73 -68 45 -138 86 -155 92 -37 13 47 64 -779 -471 l-641 -415 782 -6
        c430 -3 1083 -7 1452 -7 l670 -2 200 222 200 222 619 182 c340 100 621 186
        625 191 4 4 31 310 60 678 29 369 55 696 58 729 l6 59 395 479 394 480 -101
        616 c-56 338 -100 617 -98 619 2 2 150 -173 328 -389 567 -685 770 -914 827
        -932 14 -5 59 8 134 37 62 25 372 143 688 262 316 120 579 221 584 225 4 5
        -10 125 -33 268 -23 143 -41 263 -41 266 0 3 144 174 320 381 l320 375 -239
        463 c-295 571 -282 547 -277 547 3 0 243 -248 534 -551 l530 -550 6 -72 c3
        -40 24 -578 46 -1197 22 -619 43 -1177 46 -1241 l6 -115 -694 -613 -695 -614
        -6 -510 c-4 -281 -5 -513 -1 -516 8 -8 2754 -14 2754 -5 0 3 -118 176 -262
        383 -144 207 -263 387 -265 401 -2 14 53 259 121 545 l124 519 -585 1504
        c-321 827 -582 1506 -580 1508 2 2 287 -292 634 -653 641 -669 818 -847 866
        -872 26 -14 35 -9 322 163 163 98 298 176 300 174 2 -1 24 -149 50 -328 55
        -383 66 -445 100 -556 24 -79 245 -663 263 -693 4 -7 133 -86 285 -175 l278
        -161 225 -520 c124 -286 227 -521 228 -522 0 -1 154 -34 340 -73 187 -39 393
        -87 459 -106 165 -47 418 -150 911 -368 l419 -186 535 0 534 0 -44 49 c-23 27
        -96 106 -161 176 -267 287 -689 770 -1125 1287 -133 158 -242 278 -255 282
        -12 3 -197 6 -412 7 l-390 0 -805 771 c-1182 1130 -1341 1279 -1404 1313 l-31
        17 -293 -176 c-161 -97 -295 -176 -297 -176 -4 0 -986 1019 -1982 2055 -253
        264 -501 519 -550 568 -95 91 -124 104 -158 71z"/>
        </g>
        </svg>