<svg version="1.0" xmlns="http://www.w3.org/2000/svg"
 width="55" height="55" viewBox="0 0 512.000000 512.000000"
 preserveAspectRatio="xMidYMid meet">

<g transform="translate(0.000000,512.000000) scale(0.100000,-0.100000)"
fill="#FFFFFF" stroke="none">
<path d="M1095 4681 c-55 -14 -112 -50 -153 -96 -78 -88 -72 82 -72 -2024 -1
-2107 -7 -1937 71 -2025 22 -25 65 -57 97 -73 l57 -28 1465 0 1465 0 57 28
c32 16 75 48 97 73 78 88 72 -82 71 2025 0 2104 6 1936 -71 2023 -22 25 -65
57 -97 73 l-57 28 -1450 2 c-797 0 -1463 -2 -1480 -6z m2938 -184 c23 -17 40
-41 47 -65 8 -26 10 -541 8 -1715 l-3 -1679 -433 750 c-238 412 -440 757 -450
766 -24 21 -80 21 -103 0 -10 -9 -197 -326 -416 -705 -218 -379 -400 -685
-404 -681 -4 4 -127 216 -274 472 -147 256 -278 475 -292 488 -29 27 -62 28
-94 3 -13 -10 -150 -237 -304 -504 l-280 -485 -3 1627 c-2 1137 0 1637 8 1663
12 41 59 83 100 91 14 2 662 4 1441 3 l1416 -1 36 -28z m-758 -2384 c66 -113
127 -220 136 -237 l17 -31 -127 -1 c-122 0 -130 -2 -249 -43 -96 -33 -135 -41
-176 -39 l-52 3 160 278 c89 152 163 277 166 277 3 0 60 -93 125 -207z m-1521
-367 c47 -81 83 -152 81 -157 -3 -5 -35 -18 -71 -29 -89 -27 -294 -27 -294 1
0 10 191 341 195 337 1 -2 41 -70 89 -152z m1735 -88 l63 -23 268 -465 c241
-418 267 -467 258 -491 -5 -15 -18 -35 -28 -44 -49 -44 -47 -44 -997 -45 -497
0 -903 2 -903 4 0 2 130 228 288 502 l288 499 66 -3 c90 -5 207 14 302 50 45
16 99 34 121 38 65 15 205 3 274 -22z m-1431 -438 c68 -118 125 -220 125 -226
0 -6 -51 -100 -113 -208 l-113 -197 -416 3 -416 3 -34 24 c-41 29 -61 75 -61
139 0 44 14 72 161 328 89 153 167 289 175 301 13 20 16 21 63 8 130 -34 296
-26 415 20 34 13 67 23 75 22 8 -1 70 -99 139 -217z"/>
<path d="M1968 4306 c-209 -56 -268 -327 -101 -465 74 -61 71 -61 693 -61 622
0 619 0 693 61 60 49 89 110 95 193 4 66 1 76 -29 135 -40 76 -101 123 -179
140 -77 16 -1110 14 -1172 -3z m1181 -182 c59 -50 46 -140 -24 -170 -51 -21
-1079 -21 -1130 0 -70 30 -83 120 -24 170 l31 26 558 0 558 0 31 -26z"/>
<path d="M1323 3570 c-27 -11 -43 -40 -43 -77 1 -35 19 -59 54 -73 38 -14
2414 -14 2452 0 15 6 33 18 40 28 19 25 17 76 -5 103 l-19 24 -1229 2 c-696 1
-1237 -2 -1250 -7z"/>
<path d="M1302 3187 c-30 -32 -29 -81 3 -112 l24 -25 1231 0 1231 0 24 25 c33
32 34 83 2 113 l-23 22 -1235 0 -1236 0 -21 -23z"/>
</g>
</svg>
