<svg version="1.0" xmlns="http://www.w3.org/2000/svg"
        width="80" height="80" viewBox="0 0 1498.000000 586.000000"
        preserveAspectRatio="xMidYMid meet">
        <g transform="translate(0.000000,586.000000) scale(0.100000,-0.100000)"
        fill="#131DE8" stroke="none">
        <path d="M6983 5653 c-1045 -947 -1782 -1634 -2465 -2296 -242 -234 -303 -289
        -330 -293 -20 -3 -207 30 -484 85 -249 50 -460 91 -471 91 -19 0 -130 -129
        -717 -829 -313 -375 -757 -916 -905 -1103 -69 -88 -100 -119 -125 -128 -30 -9
        -101 2 -521 80 -268 51 -488 90 -490 88 -8 -7 -468 -1309 -464 -1312 2 -3 771
        -6 1709 -8 l1706 -3 -19 120 c-81 534 -201 1201 -227 1270 -23 61 -10 106 46
        165 53 56 77 122 82 225 4 98 6 90 -98 597 -52 259 -72 408 -55 408 3 0 124
        -73 268 -163 144 -90 280 -174 302 -188 22 -13 289 -110 593 -214 l553 -191
        313 -458 313 -458 391 -216 391 -217 258 -342 258 -342 724 -1 c575 0 722 3
        718 13 -299 731 -802 2058 -932 2457 -41 126 -46 153 -43 210 5 86 28 130 114
        218 86 87 133 175 165 307 19 74 22 118 22 250 l0 160 -126 615 c-69 338 -144
        703 -166 810 -53 258 -77 489 -53 504 4 2 44 -18 87 -46 203 -129 889 -557
        1055 -657 l185 -111 1180 -408 1180 -408 666 -973 c366 -535 672 -978 680
        -986 8 -7 388 -218 844 -470 l830 -456 370 -520 369 -519 154 0 154 0 -17 28
        c-10 15 -200 298 -422 630 l-404 602 -77 39 c-128 64 -1059 510 -1329 636
        l-252 117 -148 232 c-208 326 -434 672 -829 1268 l-342 517 -534 175 c-671
        220 -1016 331 -1383 445 -242 76 -302 98 -365 138 -465 289 -1656 1013 -1666
        1013 -2 0 -102 -89 -221 -197z"/>
        </g>
        </svg>