<svg version="1.0" xmlns="http://www.w3.org/2000/svg"
                        width="40" height="40" viewBox="0 0 512.000000 512.000000"
                        preserveAspectRatio="xMidYMid meet">
                    
                    <g transform="translate(0.000000,512.000000) scale(0.100000,-0.100000)"
                    fill="#F58A07" stroke="none">
                    <path d="M1648 5101 c-75 -24 -118 -52 -172 -112 -55 -61 -68 -95 -142 -370
                    l-59 -217 -51 -5 c-91 -9 -175 -70 -208 -148 -8 -20 -33 -133 -55 -250 -142
                    -752 -301 -1394 -532 -2135 -68 -218 -73 -269 -35 -349 13 -27 35 -60 49 -73
                    l25 -23 -24 -42 c-35 -64 -81 -212 -95 -306 -22 -156 5 -369 64 -503 l25 -56
                    -41 -5 c-47 -6 -83 -31 -115 -78 -22 -32 -23 -41 -20 -179 3 -134 5 -147 27
                    -179 13 -18 42 -42 65 -52 39 -18 82 -19 841 -19 759 0 802 1 841 19 23 10 52
                    34 65 52 21 30 24 46 27 152 l4 117 193 0 193 0 72 -97 c121 -163 161 -198
                    260 -227 47 -14 162 -16 964 -16 867 0 913 1 952 19 23 10 52 34 65 52 22 31
                    24 46 27 164 4 147 -5 192 -47 228 l-28 24 -5 149 c-6 160 -19 216 -74 310
                    -35 60 -112 136 -172 171 -53 31 -62 40 -62 68 0 27 -35 93 -68 128 -14 15
                    -81 55 -148 89 -109 54 -129 61 -181 61 -32 0 -75 -8 -97 -17 l-38 -16 -121
                    63 -120 62 -17 58 c-10 31 -30 74 -45 93 -27 35 -146 119 -236 164 -62 32
                    -149 33 -216 2 l-50 -24 -51 26 c-29 15 -52 28 -52 30 0 1 8 18 18 37 13 27
                    18 65 20 182 3 143 3 151 -23 202 -14 30 -42 68 -61 85 l-35 31 52 189 52 190
                    39 0 c79 0 160 52 203 132 27 49 30 63 33 179 5 152 -9 213 -64 278 l-37 43
                    23 87 c42 156 44 180 25 246 -13 49 -27 70 -72 114 l-55 53 18 88 c15 74 16
                    98 6 150 -14 78 -42 136 -93 194 -51 57 -96 84 -224 131 -275 102 -574 279
                    -800 475 -77 66 -131 98 -197 116 -71 18 -141 17 -210 -5z m197 -170 c22 -10
                    80 -53 129 -95 235 -200 536 -375 826 -482 81 -30 114 -48 146 -80 54 -53 71
                    -116 54 -201 -7 -33 -15 -65 -19 -70 -4 -7 -279 55 -770 173 -420 101 -765
                    185 -767 186 -5 6 116 439 133 476 44 92 174 137 268 93z m309 -917 c496 -119
                    911 -223 924 -231 43 -27 45 -55 14 -172 l-29 -106 -499 -5 -499 -5 -53 -29
                    c-57 -32 -98 -79 -118 -135 -23 -65 -17 -128 27 -260 34 -102 49 -133 83 -169
                    75 -82 70 -82 494 -82 274 0 372 -3 372 -12 0 -11 -61 -242 -81 -305 l-11 -33
                    -482 0 -482 0 -52 -26 c-64 -32 -108 -83 -127 -148 -22 -72 -19 -93 27 -237
                    34 -106 50 -140 82 -176 52 -59 103 -84 190 -90 l71 -6 -121 -121 c-67 -66
                    -156 -168 -198 -226 -120 -164 -135 -181 -194 -208 -99 -45 -125 -37 -522 143
                    -190 86 -359 163 -377 170 -35 15 -53 41 -53 77 0 13 20 88 45 168 227 728
                    403 1428 539 2155 41 217 48 242 71 263 14 12 33 22 42 22 9 0 422 -97 917
                    -216z m978 -712 c21 -20 23 -34 26 -136 4 -110 3 -113 -23 -144 l-27 -32 -477
                    0 -478 0 -20 23 c-23 25 -83 198 -83 239 0 17 11 35 31 52 l31 27 499 -3 498
                    -3 23 -23z m-257 -1027 c24 -23 25 -30 25 -139 0 -107 -2 -117 -24 -143 l-24
                    -28 -475 0 c-449 0 -476 1 -496 19 -11 10 -37 68 -57 128 -32 97 -35 112 -24
                    139 7 16 20 34 29 39 9 6 222 10 519 10 l503 0 24 -25z m70 -521 c47 -25 83
                    -49 81 -52 -2 -4 -76 -121 -164 -259 -168 -266 -191 -315 -178 -395 9 -57 38
                    -109 86 -152 48 -43 59 -48 190 -81 130 -33 200 -33 268 1 64 32 75 46 256
                    334 82 129 150 236 151 238 2 2 44 -17 94 -43 78 -39 90 -48 82 -63 -5 -9 -34
                    -57 -65 -106 -79 -125 -92 -187 -61 -277 37 -104 96 -145 275 -189 146 -36
                    190 -34 269 11 45 26 63 47 127 145 l75 115 29 -21 c49 -35 108 -109 125 -158
                    11 -30 19 -91 22 -169 l5 -123 -1985 0 -1986 0 -26 38 c-95 139 -130 398 -80
                    593 19 73 71 188 88 195 7 2 151 -59 321 -136 170 -78 331 -146 359 -152 83
                    -17 184 -6 260 30 72 33 154 104 189 161 114 187 323 399 508 512 l55 34 270
                    5 c149 3 271 7 273 8 1 1 40 -19 87 -44z m388 -40 c18 -10 65 -39 104 -66 72
                    -48 91 -76 81 -116 -7 -26 -337 -545 -356 -559 -23 -19 -71 -16 -169 9 -102
                    25 -137 51 -137 99 0 48 363 623 403 638 36 13 38 13 74 -5z m861 -473 c71
                    -36 92 -53 102 -78 17 -41 12 -54 -71 -186 -84 -135 -87 -137 -229 -101 -59
                    15 -116 34 -127 43 -11 9 -22 32 -25 51 -5 31 4 49 71 155 86 135 101 154 130
                    165 27 11 46 5 149 -49z m-2234 -986 l0 -85 -765 0 -765 0 0 85 0 85 765 0
                    765 0 0 -85z m2730 0 l0 -85 -887 0 c-1021 0 -935 -8 -1017 98 -25 33 -46 63
                    -46 66 0 3 439 6 975 6 l975 0 0 -85z"/>
                    <path d="M1192 1947 c-48 -15 -127 -90 -147 -139 -41 -99 -12 -225 67 -293
                    129 -110 318 -72 395 78 31 62 34 149 8 215 -21 52 -99 124 -153 140 -47 14
                    -124 14 -170 -1z m142 -178 c49 -38 28 -130 -32 -144 -41 -9 -81 10 -96 46
                    -17 40 -10 75 22 99 32 26 72 25 106 -1z"/>
                    </g>
                    </svg>