<svg version="1.0" xmlns="http://www.w3.org/2000/svg"
 width="55" height="55" viewBox="0 0 512.000000 512.000000"
 preserveAspectRatio="xMidYMid meet">

<g transform="translate(0.000000,512.000000) scale(0.100000,-0.100000)"
fill="#FFFFFF" stroke="none">
<path d="M2083 4726 c-196 -37 -352 -117 -495 -254 -120 -115 -211 -269 -259
-437 -22 -77 -23 -96 -27 -566 l-3 -486 -39 -12 c-57 -17 -150 -90 -192 -152
-55 -79 -78 -156 -78 -255 l0 -83 -312 -3 c-295 -3 -316 -4 -358 -24 -54 -26
-104 -74 -133 -128 -22 -41 -22 -46 -22 -596 0 -550 0 -555 22 -595 28 -52 88
-109 138 -132 35 -16 77 -18 352 -21 l311 -3 4 -138 c3 -135 4 -138 40 -212
58 -118 159 -201 283 -233 52 -14 206 -16 1245 -16 1308 0 1249 -3 1359 63 71
43 137 117 174 197 28 60 31 75 35 202 l4 137 312 3 c274 3 316 5 351 21 50
23 110 80 138 132 22 40 22 45 22 595 0 554 0 555 -22 596 -30 56 -79 103
-133 128 -42 20 -65 21 -357 24 l-313 3 0 78 c0 118 -29 199 -104 294 -34 43
-136 113 -177 122 l-28 6 -4 487 c-4 523 -3 513 -60 668 -102 278 -355 498
-669 581 -86 22 -892 29 -1005 9z m992 -170 c222 -64 411 -222 506 -421 73
-153 73 -147 77 -667 l3 -468 -160 0 -160 0 -3 443 c-4 438 -4 443 -27 502
-51 127 -123 208 -234 261 -105 49 -188 57 -581 52 -311 -4 -335 -6 -394 -26
-144 -51 -241 -147 -295 -291 -20 -53 -21 -78 -25 -498 l-3 -443 -160 0 -160
0 3 468 c4 520 4 514 77 667 110 230 341 400 596 438 17 3 221 4 455 3 370 -2
433 -5 485 -20z m-93 -480 c66 -25 132 -86 165 -154 l28 -57 0 -430 0 -430
-615 0 -615 0 0 430 c0 416 1 431 21 476 26 56 74 111 122 141 69 42 124 47
497 44 307 -2 356 -4 397 -20z m836 -1262 c100 -50 152 -140 152 -266 l0 -68
-1410 0 -1410 0 0 78 c0 64 5 88 26 130 29 58 79 106 138 133 39 18 96 19
1247 19 l1205 0 52 -26z m917 -508 c66 -28 65 -20 65 -576 0 -556 1 -548 -65
-576 -51 -21 -4299 -21 -4350 0 -66 28 -65 20 -65 576 0 554 -1 548 63 575 49
21 4301 22 4352 1z m-765 -1438 c0 -97 -3 -120 -24 -163 -30 -66 -89 -121
-154 -145 -53 -20 -75 -20 -1250 -18 l-1197 3 -42 22 c-51 28 -105 82 -130
131 -14 28 -19 66 -21 160 l-4 122 1411 0 1411 0 0 -112z"/>
<path d="M1141 2084 c-18 -23 -21 -41 -21 -120 l0 -94 -72 44 c-93 56 -110 61
-146 42 -33 -17 -42 -34 -42 -76 0 -33 27 -58 118 -110 34 -19 62 -37 62 -40
0 -3 -28 -21 -62 -40 -94 -54 -118 -77 -118 -113 1 -39 18 -63 53 -76 33 -13
52 -6 140 48 l67 41 0 -94 c0 -79 3 -97 21 -120 29 -37 89 -37 118 0 18 23 21
41 21 120 l0 94 77 -47 c90 -55 125 -59 160 -19 47 55 27 95 -82 158 -41 23
-75 45 -75 48 0 3 34 25 75 48 80 47 105 73 105 110 0 28 -51 82 -77 82 -10 0
-53 -20 -95 -45 -43 -25 -80 -45 -83 -45 -3 0 -5 40 -5 89 0 109 -18 141 -80
141 -30 0 -43 -6 -59 -26z"/>
<path d="M2050 2090 c-17 -17 -20 -33 -20 -115 0 -56 -4 -95 -10 -95 -5 0 -40
19 -77 42 -80 49 -125 55 -154 19 -23 -28 -25 -84 -3 -105 8 -9 47 -34 85 -57
38 -23 69 -45 69 -49 0 -5 -36 -29 -79 -54 -80 -48 -91 -59 -91 -101 0 -37 10
-55 42 -71 35 -18 52 -13 135 37 35 22 68 39 73 39 6 0 10 -39 10 -93 0 -85 2
-96 23 -115 23 -22 60 -28 92 -16 30 12 45 60 45 144 0 44 3 80 6 80 3 0 37
-19 76 -42 39 -23 83 -41 99 -41 53 0 89 55 70 106 -6 16 -40 43 -90 73 -45
27 -81 51 -81 54 0 3 34 26 76 50 44 26 82 56 90 72 24 47 0 96 -54 113 -18 5
-43 -4 -103 -39 -43 -25 -81 -46 -84 -46 -3 0 -5 36 -5 80 0 84 -15 132 -45
144 -32 12 -75 6 -95 -14z"/>
<path d="M2959 2091 c-22 -17 -24 -29 -27 -115 -2 -53 -7 -96 -10 -96 -4 0
-27 13 -51 29 -80 53 -115 65 -147 49 -16 -7 -35 -26 -42 -41 -23 -48 -1 -80
89 -135 44 -26 79 -49 79 -52 0 -3 -36 -27 -81 -54 -50 -30 -84 -57 -90 -73
-19 -51 17 -106 70 -106 16 0 60 18 99 41 39 23 73 42 76 42 3 0 6 -36 6 -80
0 -84 15 -132 45 -144 34 -13 72 -6 93 17 19 20 22 35 22 115 0 54 4 92 10 92
5 0 38 -17 72 -38 82 -50 92 -53 128 -41 35 13 50 36 50 78 0 38 -17 56 -103
106 -37 21 -67 42 -67 46 0 4 25 22 55 39 89 51 115 77 115 115 0 18 -8 43
-19 56 -29 36 -74 30 -154 -19 -37 -23 -72 -42 -77 -42 -6 0 -10 39 -10 95 0
82 -3 98 -20 115 -26 26 -80 26 -111 1z"/>
<path d="M3861 2084 c-18 -23 -21 -41 -21 -115 0 -49 -2 -89 -5 -89 -3 0 -40
20 -83 45 -42 25 -85 45 -95 45 -26 0 -77 -54 -77 -82 0 -37 25 -63 105 -110
41 -23 75 -45 75 -48 0 -3 -34 -25 -75 -48 -109 -63 -129 -103 -82 -158 35
-40 72 -36 162 19 l75 46 0 -93 c0 -79 3 -97 21 -120 29 -37 89 -37 118 0 18
23 21 41 21 120 l0 94 67 -41 c88 -54 106 -60 141 -48 35 12 55 45 50 84 -3
31 -41 64 -133 118 l-48 28 76 44 c80 47 107 75 107 111 0 36 -11 54 -42 70
-36 19 -53 14 -145 -42 l-73 -44 0 94 c0 79 -3 97 -21 120 -16 20 -29 26 -59
26 -30 0 -43 -6 -59 -26z"/>
</g>
</svg>
