<svg version="1.0" xmlns="http://www.w3.org/2000/svg"
                        width="40" height="40" viewBox="0 0 512.000000 512.000000"
                        preserveAspectRatio="xMidYMid meet">
                    
                    <g transform="translate(0.000000,512.000000) scale(0.100000,-0.100000)"
                    fill="#F58A07" stroke="none">
                    <path d="M1180 4661 c-47 -15 -85 -39 -122 -78 -40 -41 -77 -114 -78 -150 0
                    -27 2 -27 -43 -8 -53 22 -124 19 -183 -9 -91 -42 -134 -127 -134 -262 l0 -74
                    -26 10 c-43 17 -131 12 -173 -10 -50 -25 -96 -81 -111 -134 -8 -31 -10 -162
                    -7 -482 4 -395 7 -451 26 -554 48 -261 128 -542 215 -759 l45 -111 -24 -227
                    c-40 -363 -47 -520 -39 -853 7 -339 8 -341 75 -390 164 -118 737 -158 1134
                    -79 174 35 275 101 275 178 0 18 -13 110 -30 204 -32 187 -55 380 -66 550 l-7
                    107 57 0 c50 0 61 4 87 29 l29 29 0 242 0 242 -29 29 c-27 26 -36 29 -97 29
                    l-67 0 5 48 c4 38 58 145 286 563 154 284 291 545 302 580 27 79 24 165 -6
                    206 -39 53 -69 67 -137 66 -104 -1 -240 -68 -381 -187 l-65 -56 -3 528 c-3
                    522 -3 527 -25 568 -60 113 -212 158 -320 94 -32 -19 -38 -19 -45 -6 -43 76
                    -131 127 -228 132 -36 2 -76 0 -90 -5z m143 -115 c42 -17 83 -66 97 -114 7
                    -25 10 -222 8 -602 l-3 -565 -168 -3 -167 -2 2 597 3 598 24 34 c44 61 135 86
                    204 57z m387 -99 c13 -7 35 -28 47 -46 l23 -34 -2 -551 -3 -551 -117 -3 -118
                    -3 0 556 c0 607 -1 598 58 629 33 19 79 20 112 3z m-769 -155 c38 -42 41 -83
                    37 -592 l-3 -435 -120 0 -120 0 0 492 c0 483 0 492 21 520 30 41 62 54 114 49
                    33 -3 51 -11 71 -34z m-350 -331 l29 -29 0 -337 0 -336 -102 3 -103 3 0 333 0
                    334 33 29 c45 41 102 41 143 0z m1791 -495 c11 -16 10 -55 -3 -101 -6 -22
                    -117 -237 -247 -477 l-237 -437 -3 367 c-3 427 -17 373 131 498 163 137 324
                    204 359 150z m-602 -411 l0 -95 -674 0 -674 0 -6 68 c-4 37 -9 79 -12 95 l-6
                    27 686 0 686 0 0 -95z m0 -565 l0 -359 -222 -6 c-123 -3 -370 -8 -549 -10
                    l-327 -6 -32 78 c-65 156 -136 384 -178 576 l-20 87 664 0 664 0 0 -360z
                    m-100 -660 l0 -190 -130 0 -130 0 0 183 c0 101 3 187 7 190 3 4 62 7 130 7
                    l123 0 0 -190z m290 0 l0 -190 -90 0 -90 0 0 183 c0 101 3 187 7 190 3 4 44 7
                    90 7 l83 0 0 -190z m-660 0 l0 -170 -326 0 -326 0 6 43 c3 23 11 94 17 157 6
                    63 12 121 14 128 3 9 74 12 310 12 l305 0 0 -170z m232 -597 l316 -318 21
                    -111 c12 -61 21 -116 21 -123 0 -16 -56 -48 -115 -66 -86 -25 -234 -45 -383
                    -52 l-144 -6 -315 314 -314 314 6 145 c3 80 8 162 11 183 l6 37 286 0 287 0
                    317 -317z m262 185 c4 -62 12 -155 17 -207 6 -51 9 -95 7 -97 -2 -2 -98 91
                    -213 206 l-210 210 196 0 196 0 7 -112z m-752 -846 c-42 -4 -217 24 -293 47
                    -36 12 -78 30 -93 42 l-26 20 0 167 0 167 220 -220 c206 -205 219 -220 192
                    -223z"/>
                    <path d="M3779 4657 c-72 -27 -131 -76 -165 -135 -1 -2 -18 7 -37 18 -108 64
                    -260 19 -320 -94 -22 -41 -22 -46 -25 -568 l-3 -528 -65 56 c-141 119 -277
                    186 -381 187 -68 1 -98 -13 -137 -66 -30 -41 -33 -127 -6 -206 11 -35 148
                    -296 302 -580 228 -418 282 -525 286 -563 l5 -48 -67 0 c-61 0 -70 -3 -97 -29
                    l-29 -29 0 -242 0 -242 29 -29 c26 -25 37 -29 87 -29 l57 0 -7 -107 c-11 -170
                    -34 -363 -66 -550 -37 -209 -37 -227 -5 -269 142 -187 1139 -211 1384 -34 67
                    49 68 51 75 390 8 333 1 490 -39 853 l-24 228 54 137 c87 221 159 476 206 732
                    19 103 22 161 26 554 4 321 2 450 -7 481 -15 54 -61 110 -111 135 -42 22 -130
                    27 -173 10 l-26 -10 0 74 c0 135 -43 220 -134 262 -59 28 -130 31 -183 9 -45
                    -19 -43 -19 -43 8 -1 64 -79 170 -155 209 -50 26 -156 34 -206 15z m157 -116
                    c23 -10 52 -34 65 -52 l24 -34 3 -598 2 -597 -167 2 -168 3 -3 565 c-2 380 1
                    577 8 602 30 106 136 155 236 109z m-416 -96 c61 -32 60 -20 60 -630 l0 -556
                    -117 3 -118 3 -3 551 -2 551 23 34 c39 58 98 74 157 44z m826 -146 c13 -12 28
                    -39 34 -58 5 -21 8 -234 7 -506 l-2 -470 -120 0 -120 0 0 492 c0 483 0 492 21
                    520 11 15 32 34 45 41 35 19 105 9 135 -19z m326 -338 l33 -29 0 -334 0 -333
                    -102 -3 -103 -3 0 336 0 337 29 29 c41 41 98 41 143 0z m-1756 -521 c79 -38
                    255 -175 296 -230 17 -24 18 -48 16 -392 l-3 -367 -237 437 c-150 275 -242
                    456 -249 488 -28 122 20 139 177 64z m1790 -317 c-3 -16 -8 -58 -12 -95 l-6
                    -68 -674 0 -674 0 0 95 0 95 686 0 686 0 -6 -27z m-46 -296 c0 -67 -119 -472
                    -187 -633 l-35 -85 -327 6 c-179 2 -426 7 -548 10 l-223 6 0 359 0 360 660 0
                    660 0 0 -23z m-1332 -999 l2 -188 -90 0 -90 0 0 190 0 191 88 -3 87 -3 3 -187z
                    m370 0 l2 -188 -130 0 -130 0 0 190 0 191 128 -3 127 -3 3 -187z m744 12 c9
                    -85 17 -161 17 -167 1 -10 -70 -13 -324 -13 l-325 0 0 170 0 170 308 -2 307
                    -3 17 -155z m32 -327 c3 -21 8 -103 11 -183 l6 -145 -315 -314 -314 -314 -144
                    6 c-149 7 -297 27 -383 52 -60 18 -115 50 -115 67 0 7 9 63 21 123 l20 110
                    317 318 317 317 287 0 286 0 6 -37z m-764 9 c0 -5 -95 -102 -211 -217 l-212
                    -207 6 48 c3 27 11 124 18 217 l13 167 193 0 c106 0 193 -4 193 -8z m745 -859
                    c-33 -29 -136 -60 -255 -78 -191 -29 -195 -45 55 205 l220 220 3 -162 3 -163
                    -26 -22z"/>
                    </g>
                    </svg>