<svg version="1.0" xmlns="http://www.w3.org/2000/svg"
 width="40" height="40" viewBox="0 0 512.000000 512.000000"
 preserveAspectRatio="xMidYMid meet">

<g transform="translate(0.000000,512.000000) scale(0.100000,-0.100000)"
fill="#F58A07" stroke="none">
<path d="M2221 4740 l-313 -240 -525 0 c-523 0 -554 -2 -575 -34 -4 -6 -8
-191 -8 -412 l0 -400 -330 -253 -330 -252 0 -1488 c0 -1429 1 -1489 18 -1504
17 -16 198 -17 2404 -17 2299 0 2385 1 2401 18 16 17 17 133 15 1507 l-3 1489
-327 250 -328 250 0 400 c0 221 -4 406 -8 412 -21 32 -52 34 -575 34 l-524 0
-313 240 c-222 170 -322 240 -340 240 -18 0 -117 -70 -339 -240z m559 -82
l199 -153 -209 -3 c-116 -1 -304 -1 -420 0 l-209 3 207 158 c113 87 212 155
219 153 7 -3 103 -74 213 -158z m1410 -1171 l0 -873 -576 -470 c-317 -258
-609 -490 -650 -515 -227 -142 -538 -149 -779 -18 -63 35 -155 108 -838 664
l-417 339 0 873 0 873 1630 0 1630 0 0 -873z m-3390 -387 c0 -203 -2 -370 -6
-370 -3 0 -111 86 -240 191 l-234 191 197 150 c109 83 214 164 233 179 19 16
38 28 43 29 4 0 7 -166 7 -370z m3677 260 c75 -58 179 -137 230 -177 l94 -71
-231 -189 c-127 -103 -236 -189 -241 -191 -5 -2 -9 142 -9 368 0 232 4 370 10
368 5 -1 71 -50 147 -108z m-3368 -1069 c652 -531 800 -656 789 -666 -27 -25
-1608 -1265 -1613 -1265 -3 0 -5 585 -5 1300 0 1076 2 1300 13 1293 7 -4 375
-302 816 -662z m3727 -1928 c-3 -3 -1575 1225 -1614 1262 -11 10 145 140 800
674 l813 662 3 -1297 c1 -714 0 -1299 -2 -1301z m-2616 1080 c105 -44 210 -63
340 -63 179 0 338 43 476 129 l60 38 804 -631 803 -631 -1072 -3 c-589 -1
-1553 -1 -2142 0 l-1071 3 803 631 803 630 60 -36 c34 -20 95 -50 136 -67z"/>
<path d="M1442 3887 c-28 -30 -28 -68 1 -95 l23 -22 1095 0 1096 0 21 23 c28
30 28 68 -1 95 l-23 22 -1095 0 -1096 0 -21 -23z"/>
<path d="M1440 3350 c-26 -26 -26 -72 1 -96 20 -18 53 -19 1119 -19 1066 0
1099 1 1119 19 27 24 27 70 1 96 -20 20 -33 20 -1120 20 -1087 0 -1100 0
-1120 -20z"/>
<path d="M1446 2819 c-32 -25 -35 -70 -6 -99 20 -20 33 -20 1120 -20 1087 0
1100 0 1120 20 29 29 26 74 -6 99 -27 21 -29 21 -1114 21 -1085 0 -1087 0
-1114 -21z"/>
</g>
</svg>
