<svg version="1.0" xmlns="http://www.w3.org/2000/svg"
        width="80" height="80" viewBox="0 0 1238.000000 585.000000"
        preserveAspectRatio="xMidYMid meet">
        <g transform="translate(0.000000,585.000000) scale(0.100000,-0.100000)"
        fill="#131DE8" stroke="none">
        <path d="M6197 5830 c-98 -19 -138 -76 -272 -395 -55 -129 -372 -931 -678
        -1712 -29 -73 -55 -133 -58 -133 -8 0 -240 335 -402 580 -64 96 -136 201 -161
        232 -79 99 -183 142 -282 117 -97 -25 -104 -36 -644 -971 -272 -472 -500 -858
        -506 -858 -6 0 -18 7 -25 17 -40 47 -186 71 -247 39 -78 -41 -136 -125 -872
        -1246 -106 -162 -199 -301 -206 -309 -11 -12 -21 -11 -66 8 -68 29 -144 37
        -192 21 -22 -7 -335 -245 -779 -592 -408 -320 -753 -589 -766 -599 -23 -19 -5
        -19 785 -19 l809 1 -108 102 -108 103 46 344 c26 190 49 348 53 351 61 51 134
        100 145 96 9 -3 36 -92 73 -242 l59 -237 135 -113 135 -113 40 -146 40 -146
        665 1 665 1 -215 72 -215 73 -141 299 c-77 164 -158 328 -179 364 -21 36 -128
        198 -238 361 l-199 297 282 428 c389 588 435 653 455 632 3 -2 -25 -107 -60
        -234 -36 -126 -66 -236 -67 -244 -2 -9 102 -115 245 -250 232 -221 247 -237
        242 -265 -13 -77 -86 -793 -83 -817 3 -24 54 -63 398 -299 l395 -271 47 -74
        48 -74 2077 1 c1143 1 2069 4 2058 6 -11 3 -505 110 -1099 239 l-1078 234
        -379 0 c-231 0 -380 4 -384 10 -3 5 -12 139 -20 297 -8 158 -16 299 -18 313
        -1 20 -63 82 -242 248 l-240 222 -227 1357 c-126 746 -226 1359 -223 1362 14
        14 94 -89 258 -334 418 -626 516 -753 987 -1280 216 -242 393 -441 395 -443 1
        -2 137 -51 301 -110 l299 -107 125 -498 125 -497 350 -281 c193 -154 406 -318
        475 -364 69 -45 245 -149 391 -229 l265 -146 1011 2 1011 3 -169 270 c-288
        460 -276 437 -288 540 -13 109 -61 666 -61 703 0 23 82 -55 533 -504 l532
        -532 521 -241 520 -241 188 0 188 0 -84 92 c-314 348 -615 746 -1289 1707
        -134 192 -117 185 -460 189 l-267 4 -89 101 c-49 56 -318 365 -598 687 -722
        831 -835 954 -912 994 -42 21 -144 21 -186 0 -18 -9 -88 -57 -156 -107 -69
        -49 -130 -90 -136 -91 -14 -1 -132 143 -848 1044 -810 1017 -896 1121 -984
        1179 -48 32 -85 37 -166 21z m110 -252 c44 -46 1844 -2291 1839 -2295 -4 -5
        -1461 298 -1467 305 -4 4 -54 155 -112 336 l-106 330 -165 165 -165 166 54
        485 c61 536 63 550 73 550 4 0 26 -19 49 -42z m2397 -2110 c113 -120 1476
        -1681 1472 -1686 -2 -1 -180 27 -397 63 l-394 64 -415 279 -415 279 -3 544
        c-1 299 0 550 3 557 12 31 48 7 149 -100z"/>
        </g>
        </svg>