<svg version="1.0" xmlns="http://www.w3.org/2000/svg"
                            width="80" height="80" viewBox="0 0 1294.000000 622.000000"
                            preserveAspectRatio="xMidYMid meet">
                           <g transform="translate(0.000000,622.000000) scale(0.100000,-0.100000)"
                           fill="#131DE8" stroke="none">
                           <path d="M5096 5305 l-678 -906 -27 17 c-14 10 -56 38 -94 62 -37 25 -71 42
                           -75 38 -4 -4 -955 -1021 -2113 -2259 l-2105 -2252 3233 -3 c1778 -1 4688 -1
                           6467 0 l3233 3 -1732 2434 c-952 1339 -1736 2436 -1741 2437 -5 2 -238 -267
                           -519 -597 -280 -329 -512 -599 -515 -599 -3 0 -165 348 -360 773 -195 424
                           -374 814 -398 866 l-43 94 -277 -484 -276 -483 -151 455 -151 454 -159 110
                           c-140 97 -197 146 -492 428 -183 174 -337 317 -341 317 -5 0 -314 -407 -686
                           -905z m874 375 l158 -175 224 -103 225 -104 161 -437 162 -437 -179 -536 -179
                           -536 121 -395 120 -396 -289 -705 c-159 -387 -292 -701 -295 -698 -3 4 -57
                           372 -120 817 l-113 810 -146 306 -146 305 58 174 c32 96 58 180 58 187 0 7
                           -146 196 -324 420 l-324 407 23 50 c12 28 141 303 285 611 144 308 274 585
                           287 615 l25 55 26 -30 c14 -17 96 -109 182 -205z m1739 -1175 l98 -423 166
                           -174 167 -173 0 -694 0 -694 -266 -383 c-146 -211 -266 -384 -268 -384 -4 0 8
                           49 163 690 63 264 93 407 87 411 -6 3 -122 37 -258 75 -137 38 -248 72 -248
                           77 0 4 45 152 100 329 l100 322 -102 301 -102 300 123 430 c68 237 126 435
                           130 440 3 6 7 2 9 -8 2 -10 48 -209 101 -442z m1841 -482 l213 -338 -49 -480
                           c-53 -519 -61 -742 -33 -962 6 -54 12 -106 13 -116 1 -11 -74 -89 -199 -207
                           -110 -104 -201 -188 -202 -186 -1 1 22 238 52 526 30 289 55 537 55 551 0 14
                           -50 123 -112 243 l-112 216 -108 0 c-59 0 -108 1 -108 3 0 2 -32 94 -70 206
                           l-70 203 251 339 c138 186 254 339 259 339 4 0 103 -152 220 -337z m-5279 105
                           c-66 -151 -1015 -2246 -1027 -2267 -11 -19 -13 -20 -10 -6 29 122 226 1029
                           226 1043 0 10 -15 64 -34 120 l-35 102 446 525 c245 289 447 525 449 525 2 0
                           -5 -19 -15 -42z m508 -1083 c23 -148 47 -298 52 -331 10 -58 17 -69 125 -200
                           78 -95 114 -147 114 -164 0 -14 -16 -252 -35 -529 l-35 -503 -126 -157 c-70
                           -86 -168 -207 -217 -268 -50 -62 -92 -111 -94 -109 -2 1 53 182 122 401 69
                           219 122 402 118 405 -4 4 -90 38 -190 75 -101 37 -183 70 -183 74 0 3 40 110
                           90 236 49 127 90 237 90 245 0 8 -27 116 -60 239 l-59 225 117 322 c64 177
                           120 319 123 316 3 -4 25 -128 48 -277z"/>
                           </g>
                           </svg>