<?xml version="1.0" standalone="no"?>
<!DOCTYPE svg PUBLIC "-//W3C//DTD SVG 20010904//EN"
 "http://www.w3.org/TR/2001/REC-SVG-20010904/DTD/svg10.dtd">
<svg version="1.0" xmlns="http://www.w3.org/2000/svg"
 width="40" height="40" viewBox="0 0 512.000000 512.000000"
 preserveAspectRatio="xMidYMid meet">

<g transform="translate(0.000000,512.000000) scale(0.100000,-0.100000)"
fill="#F58A07" stroke="none">
<path d="M1434 5099 c-18 -20 -19 -45 -22 -500 l-3 -479 -24 0 c-14 0 -29 -8
-35 -19 -5 -11 -10 -80 -10 -154 l0 -133 -54 -17 c-129 -41 -220 -140 -262
-284 -2 -9 -32 -13 -104 -13 -96 0 -135 -9 -152 -34 -4 -6 -8 -152 -8 -323 0
-382 -12 -353 150 -353 l110 0 0 -90 0 -90 -110 0 c-162 0 -150 29 -150 -353
0 -380 -13 -350 151 -355 l109 -4 2 -811 3 -812 28 -57 c39 -79 104 -143 185
-181 l67 -32 920 0 920 0 66 32 c80 39 150 111 187 191 l27 57 3 1193 2 1192
115 0 c170 0 155 -40 155 414 l0 375 -26 20 c-23 18 -41 21 -140 21 -102 0
-114 2 -114 18 0 25 -44 116 -77 159 -35 46 -127 106 -187 123 l-46 13 0 168
c0 221 8 213 -209 207 -175 -4 -165 7 -169 -203 l-3 -165 -90 0 -89 0 0 169
c0 145 -2 171 -17 182 -12 11 -54 14 -170 14 -142 0 -156 -2 -169 -19 -11 -15
-14 -58 -14 -183 l0 -163 -90 0 -90 0 0 128 c0 138 -9 168 -53 174 l-22 3 -5
483 c-5 464 -6 484 -24 498 -16 11 -64 14 -231 14 -203 0 -213 -1 -231 -21z
m366 -534 l0 -435 -135 0 -135 0 0 435 0 435 135 0 135 0 0 -435z m630 -620
l0 -125 -65 0 -65 0 0 125 0 125 65 0 65 0 0 -125z m560 0 l0 -125 -70 0 -70
0 0 118 c0 65 3 122 7 125 3 4 35 7 70 7 l63 0 0 -125z m-1110 -35 l0 -90
-210 0 -210 0 0 90 0 90 210 0 210 0 0 -90z m1290 -247 c60 -31 111 -94 130
-161 6 -24 10 -279 10 -699 l0 -661 -56 -18 c-100 -31 -183 -107 -232 -211
l-27 -58 -3 -867 -3 -868 -764 0 -764 0 -3 863 -3 862 -23 57 c-41 101 -134
186 -246 224 l-46 16 0 666 c0 429 4 680 10 704 15 53 68 119 120 148 45 25
46 25 370 30 179 3 584 4 900 3 l575 -2 55 -28z m-2152 -520 l2 -233 -70 0
-70 0 0 235 0 236 68 -3 67 -3 3 -232z m2562 -58 l0 -295 -75 0 -75 0 0 295 0
295 75 0 75 0 0 -295z m-2562 -827 l-3 -233 -67 -3 -68 -3 0 236 0 235 70 0
70 0 -2 -232z m178 -264 c18 -9 51 -35 73 -59 73 -80 71 -47 71 -977 0 -455
-2 -828 -5 -828 -3 0 -20 6 -39 14 -46 19 -104 72 -129 120 l-22 41 -3 853
c-2 624 1 852 9 852 6 0 26 -7 45 -16z m2112 -831 c-3 -776 -4 -851 -20 -884
-32 -69 -93 -125 -155 -144 l-23 -6 0 833 c0 568 4 845 11 872 6 22 22 56 36
77 28 42 105 99 135 99 18 0 18 -28 16 -847z"/>
<path d="M1560 3437 c-64 -18 -115 -60 -145 -120 l-25 -51 0 -401 0 -401 26
-52 c32 -65 92 -109 168 -123 35 -6 287 -9 678 -7 621 3 623 3 664 25 53 28
107 91 122 142 8 26 12 159 12 418 0 421 -2 438 -63 501 -18 19 -50 43 -72 55
-40 22 -45 22 -680 24 -485 2 -651 -1 -685 -10z m1342 -145 l33 -32 0 -396 0
-396 -32 -28 c-20 -18 -48 -31 -75 -35 -24 -3 -313 -5 -643 -3 -554 3 -602 4
-626 21 -48 32 -49 44 -49 443 0 435 -2 427 90 458 8 2 297 4 642 3 l628 -2
32 -33z"/>
<path d="M1607 1972 c-23 -25 -21 -58 3 -82 20 -20 33 -20 615 -20 582 0 595
0 615 20 24 24 25 48 4 78 l-15 22 -603 0 c-571 0 -604 -1 -619 -18z"/>
<path d="M1610 1610 c-25 -25 -26 -62 -2 -83 17 -15 74 -17 620 -17 l601 0 15
22 c23 32 20 54 -10 77 -26 21 -35 21 -615 21 -576 0 -589 0 -609 -20z"/>
<path d="M1607 1242 c-23 -25 -21 -58 3 -82 20 -20 33 -20 613 -20 583 0 594
0 615 20 26 24 28 47 6 78 l-15 22 -603 0 c-571 0 -604 -1 -619 -18z"/>
<path d="M1610 880 c-25 -25 -26 -62 -2 -83 17 -15 74 -17 620 -17 l602 0 16
25 c21 32 12 68 -21 83 -19 9 -185 12 -610 12 -572 0 -585 0 -605 -20z"/>
<path d="M1607 512 c-23 -25 -21 -58 3 -82 20 -20 33 -20 609 -20 580 0 589 0
615 21 30 23 33 45 10 77 l-15 22 -603 0 c-571 0 -604 -1 -619 -18z"/>
<path d="M3212 4848 c-44 -55 -8 -101 87 -112 35 -4 100 -18 144 -31 410 -119
710 -455 782 -875 9 -52 18 -104 20 -116 3 -11 16 -26 31 -33 22 -10 31 -9 51
4 13 9 27 23 30 31 3 9 -1 61 -10 117 -70 450 -389 828 -817 971 -149 49 -297
69 -318 44z"/>
<path d="M3215 4556 c-19 -20 -24 -32 -19 -49 10 -34 16 -38 106 -58 118 -27
200 -62 295 -125 185 -123 315 -326 353 -552 10 -59 17 -76 36 -89 30 -19 70
-6 82 28 22 59 -47 292 -124 419 -142 236 -389 402 -661 445 -37 6 -46 3 -68
-19z"/>
<path d="M3222 4283 c-7 -3 -18 -16 -23 -30 -15 -40 10 -68 78 -88 193 -56
346 -213 384 -393 14 -67 48 -107 82 -96 38 11 49 34 42 88 -15 121 -101 275
-206 370 -109 99 -292 175 -357 149z"/>
</g>
</svg>
